<svg width="800px" height="800px" viewBox="0 0 2050 2050" data-name="Layer 3" id="Layer_3" xmlns="http://www.w3.org/2000/svg"><defs><style>.cls-1{fill:#4d4d4d;}.cls-2{fill:#ffffff;}</style></defs><title/><path class="cls-1" d="M1025,1629.4a602.6,602.6,0,1,1,235.3-47.5A601.4,601.4,0,0,1,1025,1629.4Z"/><path class="cls-2" d="M1025,1413.4c-103.7,0-201.3-40.4-274.6-113.8S636.6,1128.7,636.6,1025,677,823.7,750.4,750.4a389.8,389.8,0,0,1,76.9-59.9,45,45,0,1,1,45.9,77.4A301.3,301.3,0,0,0,814,814a297.8,297.8,0,1,0,362.4-46.3,45,45,0,1,1,45.8-77.5,387,387,0,0,1,77.4,60.2c73.4,73.3,113.8,170.9,113.8,274.6s-40.4,201.3-113.8,274.6S1128.7,1413.4,1025,1413.4Z"/><path class="cls-2" d="M1025,1038.6a45,45,0,0,1-45-45V606.9a45,45,0,0,1,90,0V993.6A45,45,0,0,1,1025,1038.6Z"/></svg>